<?xml version="1.0" encoding="UTF-8"?><svg enable-background="new 0 0 512 512" version="1.1" viewBox="0 0 512 512" xml:space="preserve" xmlns="http://www.w3.org/2000/svg"><style type="text/css">.st0{fill:#a0a5aa;}</style><path class="st0" d="m454.5 184.9c0 37.2-30.2 67.4-67.4 67.4-7.7 0-15.2-1.3-22.1-3.7l-26.5 35.9c8.5 11.3 13.6 25.3 13.6 40.6 0 37.2-30.2 67.4-67.4 67.4s-67.4-30.2-67.4-67.4c0-3.9 0.3-7.6 1-11.3l-42.5-19.6c-12.3 15.5-31.4 25.5-52.8 25.5-10.8 0-21-2.6-30-7.1l-68 67.9v32.6c0 39.7 32.2 71.9 71.9 71.9l316.3-27c39.7 0 71.9-32.2 71.9-71.9v-209.8l-30.6 8.2c-0.1 0.1 0 0.3 0 0.4z"/><path class="st0" d="m413.1 52l-316.2-27c-39.7 0-71.9 32.2-71.9 71.9v232.8l41.1-41.1c-6.7-10.5-10.6-22.9-10.6-36.3 0-37.2 30.2-67.4 67.4-67.4s67.4 30.2 67.4 67.4c0 3-0.2 5.9-0.6 8.8l43.8 20.2c12.4-14.4 30.7-23.5 51.1-23.5 8.9 0 17.5 1.8 25.3 4.9l25.5-34.5c-9.8-11.7-15.7-26.8-15.7-43.2 0-37.2 30.2-67.4 67.4-67.4 24.4 0 45.7 12.9 57.6 32.3l40.4-10.8v-15.2c-0.1-39.8-32.3-71.9-72-71.9z"/><circle class="st0" cx="122.9" cy="252.3" r="33.7"/><ellipse class="st0" transform="matrix(.9985 -.055301 .055301 .9985 -17.541 16.239)" cx="284.6" cy="325.1" rx="33.7" ry="33.7"/><path class="st0" d="m420.8 184.9c0-18.6-15.1-33.7-33.7-33.7s-33.7 15.1-33.7 33.7 15.1 33.7 33.7 33.7 33.7-15.1 33.7-33.7z"/></svg>
